<?xml version="1.0" standalone="no"?>
<!DOCTYPE svg PUBLIC "-//W3C//DTD SVG 20010904//EN"
 "http://www.w3.org/TR/2001/REC-SVG-20010904/DTD/svg10.dtd">
<svg version="1.0" xmlns="http://www.w3.org/2000/svg"
 width="841.000000pt" height="356.000000pt" viewBox="0 0 841.000000 356.000000"
 preserveAspectRatio="xMidYMid meet">

<g transform="translate(0.000000,356.000000) scale(0.100000,-0.100000)"
fill="#000000" stroke="none">
<path d="M102 1748 l3 -1683 4075 0 4075 0 3 1683 2 1682 -4080 0 -4080 0 2
-1682z m8118 2 l0 -1640 -4040 0 -4040 0 0 1640 0 1640 4040 0 4040 0 0 -1640z"/>
<path d="M220 1750 l0 -1560 3960 0 3960 0 0 1560 0 1560 -3960 0 -3960 0 0
-1560z m7880 0 l0 -1520 -3920 0 -3920 0 0 1520 0 1520 3920 0 3920 0 0 -1520z"/>
<path d="M6947 2382 c-44 -32 -77 -79 -77 -107 0 -53 98 -143 143 -131 34 8
104 72 115 105 14 39 -10 85 -67 129 -52 39 -67 40 -114 4z"/>
<path d="M3834 2376 c-137 -31 -252 -117 -302 -224 -36 -76 -38 -186 -5 -248
35 -65 129 -144 310 -257 277 -174 289 -186 281 -282 -8 -100 -69 -147 -201
-153 -106 -6 -188 21 -287 93 -41 30 -80 55 -87 55 -28 0 -71 -120 -58 -161 9
-28 82 -66 171 -90 251 -65 493 22 588 213 31 60 36 81 36 139 0 149 -53 207
-365 399 -209 129 -245 166 -245 252 0 93 70 148 188 148 86 0 137 -17 217
-75 35 -25 71 -45 79 -45 34 0 81 125 60 158 -41 65 -250 107 -380 78z"/>
<path d="M1127 2353 c-21 -20 -4 -45 46 -67 86 -38 81 -29 362 -696 115 -272
213 -498 219 -502 5 -3 14 -5 20 -3 6 2 32 9 59 15 44 12 47 15 47 44 0 18 7
57 16 87 16 52 362 867 403 947 29 57 76 100 122 112 36 10 40 14 37 38 l-3
27 -199 3 c-204 2 -215 1 -216 -36 0 -12 8 -16 77 -42 37 -14 58 -57 49 -100
-4 -24 -311 -778 -321 -788 -7 -8 -318 764 -322 802 -7 55 4 71 64 97 44 19
53 35 31 57 -13 13 -479 18 -491 5z"/>
<path d="M5406 2344 c-12 -32 -5 -43 34 -54 23 -6 55 -24 73 -40 l32 -28 0
-485 0 -485 -25 -26 c-13 -15 -44 -33 -70 -40 -47 -14 -61 -35 -40 -61 18 -22
482 -22 500 0 21 26 7 46 -45 63 -35 12 -56 27 -72 51 -22 32 -23 43 -23 222
0 176 1 189 19 199 12 6 122 10 286 10 164 0 274 -4 286 -10 18 -10 19 -23 19
-191 0 -230 -12 -261 -111 -287 -36 -9 -49 -33 -29 -57 18 -22 482 -22 500 0
20 24 8 49 -29 56 -41 8 -82 37 -98 70 -10 18 -13 140 -13 491 l0 467 30 34
c20 23 45 38 75 46 44 11 52 22 39 55 -5 14 -37 16 -254 16 -217 0 -249 -2
-254 -16 -12 -32 -5 -43 32 -53 101 -28 112 -57 112 -301 l0 -190 -26 -10
c-34 -13 -525 -13 -559 0 l-26 10 3 211 3 211 32 28 c18 16 51 34 73 40 37 10
41 14 38 38 l-3 27 -251 3 c-223 2 -252 1 -258 -14z"/>
<path d="M2798 1946 c-79 -28 -108 -47 -170 -114 -77 -82 -118 -186 -118 -298
0 -264 174 -444 430 -444 218 0 385 136 429 348 21 101 5 225 -40 314 -90 177
-330 265 -531 194z m199 -107 c109 -53 184 -209 186 -388 2 -139 -48 -225
-144 -251 -74 -20 -155 8 -221 77 -121 125 -154 420 -60 527 53 60 156 75 239
35z"/>
<path d="M4488 1930 c-146 -44 -148 -45 -148 -69 0 -12 12 -22 38 -29 21 -7
49 -23 63 -38 24 -25 24 -27 29 -292 6 -291 9 -311 66 -364 40 -37 75 -48 152
-48 76 0 138 15 232 55 107 45 115 45 170 -10 55 -54 78 -58 169 -31 139 41
174 101 60 101 -61 0 -84 22 -95 90 -3 25 -5 187 -3 360 4 276 2 315 -11 315
-8 0 -79 -19 -157 -41 -126 -37 -143 -45 -143 -63 0 -15 14 -27 50 -43 34 -15
53 -30 60 -48 6 -15 10 -123 10 -244 0 -204 -1 -219 -20 -239 -30 -32 -68 -49
-140 -62 -88 -16 -140 -7 -176 31 l-29 30 -2 337 -1 337 -24 2 c-12 1 -80 -16
-150 -37z"/>
<path d="M6955 1933 c-82 -20 -153 -41 -157 -47 -15 -21 -3 -38 36 -51 22 -8
49 -23 60 -35 20 -20 21 -30 21 -290 l0 -269 -29 -30 c-16 -17 -44 -34 -63
-37 -35 -7 -44 -29 -21 -52 17 -17 409 -17 426 0 23 23 14 45 -21 52 -19 3
-47 20 -63 37 l-29 30 -3 253 c-2 189 1 278 12 355 9 57 13 107 10 112 -7 12
-11 12 -179 -28z"/>
</g>
</svg>
